<svg width="34" height="33" viewBox="0 0 34 33" fill="none" xmlns="http://www.w3.org/2000/svg">
<g clip-path="url(#clip0_1592_18131)">
<path d="M16.9989 12.8574C16.3208 12.8574 15.6579 13.0585 15.0941 13.4352C14.5302 13.812 14.0908 14.3474 13.8313 14.9739C13.5718 15.6004 13.5039 16.2898 13.6362 16.9549C13.7685 17.62 14.095 18.2309 14.5745 18.7104C15.054 19.1899 15.6649 19.5164 16.33 19.6487C16.9951 19.781 17.6845 19.7131 18.3109 19.4536C18.9374 19.1941 19.4729 18.7546 19.8496 18.1908C20.2264 17.627 20.4275 16.9641 20.4275 16.286C20.4275 15.3767 20.0662 14.5046 19.4233 13.8616C18.7803 13.2186 17.9082 12.8574 16.9989 12.8574ZM16.9989 18.0003C16.6598 18.0003 16.3284 17.8997 16.0465 17.7114C15.7646 17.523 15.5448 17.2553 15.4151 16.942C15.2853 16.6288 15.2514 16.2841 15.3175 15.9516C15.3837 15.619 15.547 15.3136 15.7867 15.0738C16.0265 14.8341 16.3319 14.6708 16.6644 14.6046C16.997 14.5385 17.3417 14.5724 17.6549 14.7022C17.9682 14.832 18.2359 15.0517 18.4243 15.3336C18.6126 15.6155 18.7132 15.9469 18.7132 16.286C18.7132 16.7407 18.5326 17.1767 18.2111 17.4982C17.8896 17.8197 17.4535 18.0003 16.9989 18.0003Z" fill="#2E2E5B"/>
<path d="M24.9667 17.9143L24.5861 17.6949C24.7574 16.7627 24.7574 15.807 24.5861 14.8749L24.9667 14.6554C25.2593 14.4866 25.5159 14.2618 25.7216 13.9938C25.9274 13.7258 26.0784 13.4199 26.1659 13.0936C26.2535 12.7672 26.2759 12.4268 26.2319 12.0918C26.1879 11.7569 26.0784 11.4338 25.9095 11.1411C25.7407 10.8485 25.5159 10.5919 25.2479 10.3862C24.9799 10.1804 24.674 10.0294 24.3477 9.94188C24.0213 9.85433 23.6809 9.83191 23.3459 9.8759C23.011 9.9199 22.6879 10.0294 22.3952 10.1983L22.0138 10.4186C21.2934 9.80307 20.4655 9.32593 19.5718 9.01114V8.57143C19.5718 7.88944 19.3009 7.23539 18.8187 6.75315C18.3364 6.27092 17.6824 6 17.0004 6C16.3184 6 15.6643 6.27092 15.1821 6.75315C14.6999 7.23539 14.429 7.88944 14.429 8.57143V9.01114C13.5353 9.32706 12.7077 9.80537 11.9878 10.422L11.6047 10.2C11.0136 9.85901 10.3113 9.76678 9.65226 9.9436C8.9932 10.1204 8.43138 10.5518 8.09039 11.1429C7.74939 11.7339 7.65716 12.4362 7.83398 13.0953C8.0108 13.7543 8.44219 14.3162 9.03324 14.6571L9.41381 14.8766C9.24248 15.8088 9.24248 16.7644 9.41381 17.6966L9.03324 17.916C8.44219 18.257 8.0108 18.8188 7.83398 19.4779C7.65716 20.1369 7.74939 20.8392 8.09039 21.4303C8.43138 22.0213 8.9932 22.4527 9.65226 22.6295C10.3113 22.8064 11.0136 22.7141 11.6047 22.3731L11.9861 22.1529C12.7068 22.7684 13.5349 23.2456 14.429 23.5603V24C14.429 24.682 14.6999 25.336 15.1821 25.8183C15.6643 26.3005 16.3184 26.5714 17.0004 26.5714C17.6824 26.5714 18.3364 26.3005 18.8187 25.8183C19.3009 25.336 19.5718 24.682 19.5718 24V23.5603C20.4655 23.2444 21.2931 22.7661 22.013 22.1494L22.3961 22.3706C22.9872 22.7116 23.6895 22.8038 24.3485 22.627C25.0076 22.4502 25.5694 22.0188 25.9104 21.4277C26.2514 20.8367 26.3436 20.1344 26.1668 19.4753C25.99 18.8162 25.5586 18.2544 24.9675 17.9134L24.9667 17.9143ZM22.7827 14.6777C23.0729 15.7295 23.0729 16.8402 22.7827 17.892C22.732 18.0751 22.7435 18.2698 22.8155 18.4456C22.8875 18.6213 23.0159 18.7682 23.1804 18.8631L24.1095 19.3997C24.3065 19.5134 24.4503 19.7006 24.5092 19.9203C24.5681 20.14 24.5373 20.374 24.4237 20.571C24.31 20.768 24.1227 20.9117 23.9031 20.9707C23.6834 21.0296 23.4494 20.9988 23.2524 20.8851L22.3215 20.3469C22.1569 20.2515 21.9652 20.2136 21.7766 20.2392C21.588 20.2648 21.4134 20.3525 21.2801 20.4883C20.5172 21.2671 19.556 21.8228 18.5004 22.0954C18.3161 22.1428 18.1529 22.2501 18.0363 22.4005C17.9198 22.5509 17.8566 22.7358 17.8567 22.926V24C17.8567 24.2273 17.7664 24.4453 17.6056 24.6061C17.4449 24.7668 17.2269 24.8571 16.9995 24.8571C16.7722 24.8571 16.5542 24.7668 16.3934 24.6061C16.2327 24.4453 16.1424 24.2273 16.1424 24V22.9269C16.1425 22.7366 16.0793 22.5517 15.9627 22.4014C15.8462 22.251 15.6829 22.1437 15.4987 22.0963C14.443 21.8226 13.4821 21.2657 12.7198 20.4857C12.5865 20.3499 12.4119 20.2623 12.2233 20.2367C12.0348 20.2111 11.843 20.2489 11.6784 20.3443L10.7492 20.8817C10.6517 20.9389 10.5439 20.9762 10.4319 20.9915C10.3199 21.0068 10.2059 20.9998 10.0967 20.9709C9.98738 20.942 9.88488 20.8918 9.79509 20.8232C9.70529 20.7545 9.62997 20.6687 9.57345 20.5709C9.51692 20.473 9.48032 20.3649 9.46575 20.2528C9.45118 20.1407 9.45893 20.0268 9.48855 19.9177C9.51817 19.8086 9.56907 19.7064 9.63833 19.6171C9.70759 19.5278 9.79383 19.453 9.8921 19.3971L10.8212 18.8606C10.9858 18.7656 11.1141 18.6188 11.1861 18.443C11.2581 18.2672 11.2696 18.0725 11.219 17.8894C10.9287 16.8377 10.9287 15.7269 11.219 14.6751C11.2687 14.4925 11.2566 14.2985 11.1845 14.1234C11.1124 13.9483 10.9844 13.8021 10.8204 13.7074L9.89124 13.1709C9.69426 13.0572 9.5505 12.8699 9.49159 12.6503C9.43268 12.4306 9.46344 12.1966 9.5771 11.9996C9.69076 11.8026 9.87802 11.6588 10.0977 11.5999C10.3173 11.541 10.5514 11.5718 10.7484 11.6854L11.6792 12.2237C11.8435 12.3193 12.0348 12.3576 12.2231 12.3326C12.4115 12.3077 12.5862 12.2208 12.7198 12.0857C13.4827 11.3069 14.4439 10.7512 15.4995 10.4786C15.6844 10.4311 15.848 10.3232 15.9646 10.1721C16.0812 10.0211 16.1441 9.83541 16.1432 9.64457V8.57143C16.1432 8.3441 16.2335 8.12608 16.3943 7.96534C16.555 7.80459 16.7731 7.71429 17.0004 7.71429C17.2277 7.71429 17.4457 7.80459 17.6065 7.96534C17.7672 8.12608 17.8575 8.3441 17.8575 8.57143V9.64457C17.8574 9.83482 17.9206 10.0197 18.0372 10.1701C18.1537 10.3204 18.317 10.4278 18.5012 10.4751C19.5573 10.7487 20.5184 11.3056 21.281 12.0857C21.4142 12.2215 21.5889 12.3092 21.7775 12.3348C21.966 12.3604 22.1577 12.3225 22.3224 12.2271L23.2515 11.6897C23.349 11.6325 23.4569 11.5952 23.5689 11.5799C23.6809 11.5646 23.7948 11.5716 23.9041 11.6005C24.0134 11.6294 24.1159 11.6796 24.2057 11.7483C24.2955 11.8169 24.3708 11.9027 24.4273 12.0006C24.4838 12.0985 24.5204 12.2066 24.535 12.3187C24.5496 12.4308 24.5418 12.5446 24.5122 12.6537C24.4826 12.7628 24.4317 12.865 24.3624 12.9543C24.2932 13.0437 24.2069 13.1184 24.1087 13.1743L23.1795 13.7109C23.0159 13.8057 22.8882 13.9521 22.8164 14.1272C22.7446 14.3022 22.7327 14.4961 22.7827 14.6786V14.6777Z" fill="#2E2E5B"/>
</g>
<defs>
<clipPath id="clip0_1592_18131">
<rect width="20.5714" height="20.5714" fill="white" transform="translate(6.71484 6)"/>
</clipPath>
</defs>
</svg>
